<?xml version="1.0" encoding="iso-8859-1"?>
<!-- Generator: Adobe Illustrator 19.0.0, SVG Export Plug-In . SVG Version: 6.00 Build 0)  -->
<svg version="1.1" id="Layer_1" xmlns="http://www.w3.org/2000/svg" xmlns:xlink="http://www.w3.org/1999/xlink" x="0px" y="0px"
	 viewBox="0 0 512 512" style="enable-background:new 0 0 512 512;" xml:space="preserve">
<rect x="25.336" y="275.822" style="fill:#CAA977;" width="275.78" height="198.456"/>
<rect x="8.021" y="227.738" style="fill:#DFCAA3;" width="293.095" height="48.082"/>
<rect x="301.117" y="275.822" style="fill:#A88D63;" width="185.547" height="198.456"/>
<rect x="301.117" y="227.738" style="fill:#CAA977;" width="202.862" height="48.082"/>
<path style="fill:#333E48;" d="M435.949,305.643c7.827,0,14.174,6.346,14.174,14.174c0,7.829-6.347,14.175-14.174,14.175H376.32
	c-7.83,0-14.175-6.346-14.175-14.175c0-7.828,6.345-14.174,14.175-14.174H435.949z"/>
<rect x="25.336" y="375.039" style="fill:#D16A70;" width="123.655" height="52.705"/>
<rect x="131.045" y="74.789" style="fill:#CAA977;" width="212.552" height="152.949"/>
<rect x="117.698" y="37.731" style="fill:#DFCAA3;" width="225.899" height="37.058"/>
<rect x="343.597" y="74.789" style="fill:#A88D63;" width="143.002" height="152.949"/>
<rect x="343.597" y="37.731" style="fill:#CAA977;" width="156.35" height="37.058"/>
<path style="fill:#333E48;" d="M447.509,97.774c6.033,0,10.925,4.891,10.925,10.924c0,6.035-4.892,10.926-10.925,10.926h-45.956
	c-6.035,0-10.925-4.891-10.925-10.926c0-6.033,4.89-10.924,10.925-10.924C401.553,97.774,447.509,97.774,447.509,97.774z"/>
<rect x="131.045" y="151.258" style="fill:#D16A70;" width="95.303" height="40.618"/>
<path d="M503.979,219.714h-9.362V82.81h5.323c4.431,0,8.021-3.591,8.021-8.021V37.731c0-4.431-3.59-8.021-8.021-8.021H117.701
	c-4.431,0-8.021,3.59-8.021,8.021v37.058c0,4.43,3.59,8.021,8.021,8.021h5.325v136.904H8.021c-4.431,0-8.021,3.59-8.021,8.021
	v48.082c0,4.431,3.59,8.021,8.021,8.021h9.294v190.43c0,4.431,3.59,8.021,8.021,8.021h461.328c4.431,0,8.021-3.59,8.021-8.021
	v-190.43h9.293c4.431,0,8.021-3.59,8.021-8.021v-48.082C512,223.304,508.41,219.714,503.979,219.714z M351.616,45.751h140.302
	v21.016H351.616V45.751z M351.616,82.81h126.958v136.904H351.616V82.81z M125.723,45.751h209.852v21.016H125.723V45.751z
	 M226.348,199.901c4.431,0,8.021-3.59,8.021-8.021v-40.618c0-4.431-3.59-8.021-8.021-8.021h-87.279V82.81h196.506v136.904H139.068
	v-19.812h87.281V199.901z M139.068,183.858v-24.576h79.258v24.576H139.068z M293.1,466.247H33.358v-30.481H148.99
	c4.431,0,8.021-3.59,8.021-8.021v-52.703c0-4.431-3.59-8.021-8.021-8.021H33.358v-83.182h259.741v182.408H293.1z M33.358,419.724
	v-36.66h107.612v36.66H33.358z M293.1,267.796H16.042v-32.04H293.1V267.796z M478.643,466.247H309.142V283.839h169.501V466.247z
	 M495.958,267.796H309.142v-32.04h186.815V267.796z"/>
<g>
</g>
<g>
</g>
<g>
</g>
<g>
</g>
<g>
</g>
<g>
</g>
<g>
</g>
<g>
</g>
<g>
</g>
<g>
</g>
<g>
</g>
<g>
</g>
<g>
</g>
<g>
</g>
<g>
</g>
</svg>
