<?xml version="1.0" encoding="iso-8859-1"?>
<!-- Generator: Adobe Illustrator 19.0.0, SVG Export Plug-In . SVG Version: 6.00 Build 0)  -->
<svg version="1.1" id="Layer_1" xmlns="http://www.w3.org/2000/svg" xmlns:xlink="http://www.w3.org/1999/xlink" x="0px" y="0px"
	 viewBox="0 0 512.001 512.001" style="enable-background:new 0 0 512.001 512.001;" xml:space="preserve">
<path style="fill:#CEE8FA;" d="M256,397.347H56.575c0,31.569,23.811,57.163,53.18,57.163H256h146.246
	c29.369,0,53.18-25.596,53.18-57.163H256z"/>
<path style="fill:#2D527C;" d="M402.246,468.732H109.754c-37.166,0-67.403-32.024-67.403-71.386c0-7.854,6.367-14.222,14.222-14.222
	h398.851c7.855,0,14.222,6.369,14.222,14.222C469.648,436.71,439.411,468.732,402.246,468.732z M72.993,411.569
	c5.336,16.711,19.8,28.719,36.763,28.719h292.49c16.963,0,31.427-12.008,36.763-28.719H72.993z"/>
<path style="fill:#CEE8FA;" d="M256,57.491c-110.138,0-199.425,83.177-199.425,185.783H256h199.425
	C455.425,140.668,366.138,57.491,256,57.491z"/>
<g>
	<path style="fill:#2D527C;" d="M455.425,257.495H56.575c-7.855,0-14.222-6.369-14.222-14.222
		C42.352,132.99,138.194,43.269,256,43.269s213.648,89.721,213.648,200.004C469.648,251.127,463.28,257.495,455.425,257.495z
		 M71.427,229.051h369.146C432.747,141.077,352.954,71.713,256,71.713S79.253,141.077,71.427,229.051z"/>
	<path style="fill:#2D527C;" d="M440.889,411.569H71.111c-27.213,0-49.353-23.319-49.353-51.984S43.898,307.6,71.111,307.6h32.658
		c7.855,0,14.222,6.369,14.222,14.222s-6.367,14.222-14.222,14.222H71.111c-11.529,0-20.908,10.56-20.908,23.541
		c0,12.979,9.38,23.539,20.908,23.539h369.778c11.529,0,20.908-10.56,20.908-23.539c0-12.981-9.38-23.541-20.908-23.541H192.57
		c-7.855,0-14.222-6.369-14.222-14.222s6.367-14.222,14.222-14.222h248.319c27.213,0,49.353,23.32,49.353,51.985
		S468.102,411.569,440.889,411.569z"/>
	<path style="fill:#2D527C;" d="M462.647,336.045H192.57c-7.855,0-14.222-6.369-14.222-14.222s6.367-14.222,14.222-14.222h270.077
		c11.529,0,20.908-10.56,20.908-23.539c0-12.981-9.38-23.541-20.908-23.541H49.353c-11.529,0-20.908,10.56-20.908,23.541
		c0,12.979,9.38,23.539,20.908,23.539h54.417c7.855,0,14.222,6.369,14.222,14.222s-6.367,14.222-14.222,14.222H49.353
		C22.14,336.045,0,312.726,0,284.061s22.14-51.985,49.353-51.985h413.296c27.213,0,49.353,23.32,49.353,51.985
		S489.86,336.045,462.647,336.045z"/>
</g>
<path style="fill:#CEE8FA;" d="M305.537,328.278l-72.435-77.864c-0.158-0.169-0.046-0.459,0.178-0.459h187.372
	c0.223,0,0.336,0.29,0.178,0.459l-72.437,77.862C336.559,340.998,317.372,340.998,305.537,328.278z"/>
<path style="fill:#2D527C;" d="M326.965,352.039c-12.089,0-23.397-4.999-31.841-14.076l-72.437-77.861
	c-3.931-4.228-4.981-10.379-2.675-15.673c2.301-5.284,7.508-8.697,13.265-8.697h187.374c5.764,0,10.974,3.419,13.272,8.713
	c2.303,5.303,1.242,11.457-2.702,15.679l-72.415,77.84C350.362,347.041,339.054,352.039,326.965,352.039z M265.33,264.177
	l50.621,54.413c3.002,3.228,6.913,5.006,11.014,5.006c4.099,0,8.011-1.778,11.014-5.006l50.621-54.413H265.33z"/>
<g>
</g>
<g>
</g>
<g>
</g>
<g>
</g>
<g>
</g>
<g>
</g>
<g>
</g>
<g>
</g>
<g>
</g>
<g>
</g>
<g>
</g>
<g>
</g>
<g>
</g>
<g>
</g>
<g>
</g>
</svg>
