<?xml version="1.0" encoding="iso-8859-1"?>
<!-- Generator: Adobe Illustrator 19.0.0, SVG Export Plug-In . SVG Version: 6.00 Build 0)  -->
<svg version="1.1" id="Layer_1" xmlns="http://www.w3.org/2000/svg" xmlns:xlink="http://www.w3.org/1999/xlink" x="0px" y="0px"
	 viewBox="0 0 512.002 512.002" style="enable-background:new 0 0 512.002 512.002;" xml:space="preserve">
<g>
	<g>
		<g>
			<rect x="93.866" y="256" width="68.267" height="17.067"/>
			<path d="M136.532,298.667c0,4.71-3.823,8.533-8.533,8.533s-8.533-3.823-8.533-8.533v-8.533h-25.6v34.133h68.267v-34.133h-25.6
				V298.667z"/>
			<path d="M255.997,307.2c-23.526,0-42.667,19.14-42.667,42.667V512h85.333V349.867C298.663,326.34,279.523,307.2,255.997,307.2z
				 M238.862,409.6h-8.533c-4.71,0-8.533-3.823-8.533-8.533s3.823-8.533,8.533-8.533h8.533c4.71,0,8.533,3.823,8.533,8.533
				S243.572,409.6,238.862,409.6z"/>
			<rect x="349.866" y="256" width="68.19" height="17.067"/>
			<path d="M383.999,298.667c-4.71,0-8.533-3.823-8.533-8.533h-25.6v34.133h68.19v-34.133h-25.523
				C392.532,294.844,388.71,298.667,383.999,298.667z"/>
			<path d="M353.51,421.777c9.284-27.068,35.277-46.31,64.623-46.31c20.13,0,38.536,9.19,51.2,23.612V221.867h6.741
				c7.927,0,14.865-4.787,17.673-12.194c2.816-7.407,0.802-15.59-5.12-20.855L292.582,14.916
				c-20.548-19.789-52.753-19.789-73.045-0.239l-66.005,58.556V51.2h8.533c4.71,0,8.533-3.823,8.533-8.533V8.533
				c0-4.71-3.823-8.533-8.533-8.533h-102.4c-4.719,0-8.533,3.823-8.533,8.533v34.133c0,4.71,3.814,8.533,8.533,8.533h8.533v17.067
				h34.202c4.71,0,8.533,3.823,8.533,8.533s-3.823,8.533-8.533,8.533H68.198v63.599l-44.706,39.663
				c-5.965,5.291-7.996,13.534-5.171,20.992c2.833,7.458,9.822,12.279,17.801,12.279h6.477v177.289
				c12.663-14.464,31.104-23.689,51.268-23.689c29.346,0,55.339,19.243,64.623,46.31c16.29,5.589,29.645,17.289,37.777,32.068
				V349.867c0-32.939,26.795-59.733,59.733-59.733s59.733,26.795,59.733,59.733v103.979
				C323.865,439.066,337.219,427.366,353.51,421.777z M435.199,341.333h-8.61h-85.257h-8.533c-4.71,0-8.533-3.823-8.533-8.533
				c0-4.71,3.823-8.533,8.533-8.533V281.6v-34.133c0-4.71,3.823-8.533,8.533-8.533h85.257h0.077c4.719,0,8.533,3.823,8.533,8.533
				V281.6c0,0.128-0.068,0.239-0.077,0.375v42.291h0.077c4.719,0,8.533,3.823,8.533,8.533
				C443.732,337.51,439.918,341.333,435.199,341.333z M179.199,341.333h-8.533H85.332h-8.533c-4.71,0-8.533-3.823-8.533-8.533
				c0-4.71,3.823-8.533,8.533-8.533V281.6v-34.133c0-4.71,3.823-8.533,8.533-8.533h85.333c4.71,0,8.533,3.823,8.533,8.533V281.6
				v42.667c4.71,0,8.533,3.823,8.533,8.533C187.732,337.51,183.91,341.333,179.199,341.333z M51.131,204.8h-15.01
				c-0.905,0-1.519-0.427-1.835-1.271c-0.324-0.845-0.145-1.57,0.529-2.167l58.872-52.233l56.969-50.534l0.009-0.008l80.452-71.381
				c6.929-6.673,15.812-10.018,24.721-10.018c9.003,0,18.039,3.413,25.156,10.257l196.309,174.148
				c0.23,0.205,0.939,0.836,0.495,2.022c-0.461,1.186-1.408,1.186-1.724,1.186h-15.275H51.131z"/>
			<path d="M468.72,435.812c-3.823-24.482-25.045-43.281-50.586-43.281c-25.54,0-46.771,18.799-50.586,43.281
				c-24.491,3.814-43.281,25.054-43.281,50.586c0,7.049,1.451,13.935,4.309,20.489c1.357,3.106,4.429,5.111,7.825,5.111h163.465
				c3.388,0,6.46-2.005,7.817-5.111c2.867-6.536,4.318-13.431,4.318-20.489C512.001,460.866,493.21,439.626,468.72,435.812z
				 M438.316,451.675c-1.024,0.401-2.074,0.597-3.115,0.597c-3.413,0-6.63-2.057-7.945-5.419c-0.043,0-1.937-3.123-9.122-3.123
				c-6.332,0-10.061,4.873-10.095,4.924c-2.722,3.849-8.038,4.77-11.895,2.048c-3.849-2.714-4.762-8.038-2.048-11.887
				c3.183-4.514,11.827-12.151,24.038-12.151c15.411,0,22.972,8.772,25.003,13.952C444.869,445.002,442.71,449.952,438.316,451.675z
				"/>
			<path d="M144.453,435.816c-3.814-24.491-25.054-43.281-50.586-43.281c-25.54,0-46.771,18.79-50.586,43.281
				c-24.491,3.814-43.281,25.045-43.281,50.586c0,7.04,1.451,13.935,4.309,20.48c1.357,3.106,4.429,5.12,7.825,5.12H175.6
				c3.388,0,6.46-2.014,7.817-5.12c2.867-6.545,4.318-13.44,4.318-20.48C187.734,460.861,168.935,439.631,144.453,435.816z
				 M114.049,451.68c-1.024,0.401-2.082,0.589-3.115,0.589c-3.405,0-6.63-2.057-7.945-5.419c-0.043,0-1.937-3.115-9.122-3.115
				c-6.34,0-10.061,4.873-10.095,4.924c-2.722,3.849-8.047,4.762-11.895,2.048c-3.849-2.722-4.762-8.047-2.048-11.895
				c3.183-4.514,11.836-12.143,24.038-12.143c15.42,0,22.98,8.772,25.011,13.952C120.602,445.007,118.435,449.956,114.049,451.68z"
				/>
		</g>
	</g>
</g>
<g>
</g>
<g>
</g>
<g>
</g>
<g>
</g>
<g>
</g>
<g>
</g>
<g>
</g>
<g>
</g>
<g>
</g>
<g>
</g>
<g>
</g>
<g>
</g>
<g>
</g>
<g>
</g>
<g>
</g>
</svg>
