<?xml version="1.0" encoding="iso-8859-1"?>
<!-- Generator: Adobe Illustrator 19.0.0, SVG Export Plug-In . SVG Version: 6.00 Build 0)  -->
<svg version="1.1" id="Layer_1" xmlns="http://www.w3.org/2000/svg" xmlns:xlink="http://www.w3.org/1999/xlink" x="0px" y="0px"
	 viewBox="0 0 512.001 512.001" style="enable-background:new 0 0 512.001 512.001;" xml:space="preserve">
<g>
	<g>
		<path d="M416.577,374.499H299.71V275.3c11.155-7.73,23.969-17.596,38.428-29.6c26.606-22.088,62.699-55.524,76.868-77.069
			c10.682-16.253,22.72-39.099,20.968-71.784v0.001c-1.38-25.789-12.299-50.004-30.745-68.186C386.48,10.178,361.982,0,336.251,0
			c-35.375,0-64.563,25.158-80.022,41.833C241.152,25.064,212.471,0,175.74,0c-25.729,0-50.225,10.178-68.976,28.661
			C88.318,46.842,77.4,71.059,76.02,96.849c-1.768,33.13,11.128,56.841,20.982,71.795c14.029,21.286,49.046,53.709,77.141,76.954
			c14.348,11.871,27.067,21.656,38.144,29.356v222.774c0,7.882,6.392,14.273,14.273,14.273h58.878h131.14
			c7.882,0,14.273-6.392,14.273-14.273V388.773C430.85,380.89,424.46,374.499,416.577,374.499z M271.165,388.772v94.681h-30.331
			V292.048c7.394,3.35,11.873,4.007,15.323,4.007c3.249,0,7.693-0.609,15.008-3.842V388.772z M277.686,255.691
			c-0.04,0.026-0.084,0.044-0.124,0.07c-13.772,9.111-19.699,11.199-21.374,11.653c-1.694-0.474-7.695-2.638-21.728-11.967
			c-0.051-0.034-0.107-0.057-0.158-0.09c-11.073-7.375-25.886-18.341-44.171-33.59c-31.778-26.5-59.624-54.163-69.293-68.833
			c-12.465-18.915-17.342-35.235-16.313-54.563c2.061-38.501,34.009-69.824,71.216-69.824c38.607,0,68.097,43.345,68.372,43.758
			c2.602,3.919,6.977,6.295,11.681,6.367c0.073,0.001,0.147,0.001,0.218,0.001c4.622,0,8.972-2.25,11.651-6.028
			c0.313-0.441,31.697-44.099,68.588-44.099c37.208,0,69.158,31.323,71.219,69.826v0.001c1.033,19.282-3.847,35.604-16.317,54.572
			c-9.784,14.881-37.579,42.629-69.162,69.05C303.621,237.364,288.755,248.356,277.686,255.691z M402.303,483.453H299.71v-25.93
			h35.561c7.882,0,14.273-6.392,14.273-14.273s-6.392-14.273-14.273-14.273H299.71v-25.93h102.593V483.453z"/>
	</g>
</g>
<g>
	<g>
		<path d="M391.852,440.455c-0.186-0.914-0.457-1.798-0.814-2.669c-0.357-0.856-0.799-1.684-1.313-2.455
			c-0.512-0.785-1.112-1.513-1.768-2.17c-2.669-2.669-6.337-4.184-10.091-4.184s-7.436,1.514-10.091,4.184
			c-0.657,0.657-1.256,1.385-1.784,2.17c-0.512,0.771-0.956,1.599-1.313,2.455c-0.357,0.871-0.627,1.756-0.814,2.669
			c-0.186,0.928-0.27,1.871-0.27,2.798c0,0.928,0.086,1.871,0.27,2.783c0.186,0.913,0.455,1.814,0.812,2.669
			c0.357,0.871,0.801,1.698,1.313,2.469c0.528,0.785,1.128,1.513,1.784,2.17c0.657,0.657,1.386,1.256,2.171,1.77
			c0.771,0.512,1.599,0.956,2.455,1.313c0.871,0.357,1.77,0.627,2.683,0.814c0.914,0.186,1.856,0.284,2.783,0.284
			s1.87-0.098,2.783-0.284c0.914-0.187,1.813-0.457,2.669-0.814c0.869-0.357,1.697-0.801,2.468-1.313
			c0.785-0.514,1.514-1.113,2.171-1.77c0.657-0.657,1.256-1.385,1.768-2.17c0.514-0.771,0.956-1.599,1.313-2.469
			c0.357-0.856,0.628-1.756,0.814-2.669c0.186-0.914,0.285-1.856,0.285-2.783C392.138,442.326,392.038,441.382,391.852,440.455z"/>
	</g>
</g>
<g>
	<g>
		<path d="M179.471,47.49c-7.886,0-15.542,1.796-22.752,5.335c-18.327,8.994-30.401,27.451-31.509,48.173
			c-0.816,15.302,2.96,27.783,13.039,43.08c1.693,2.565,4.442,6.035,8.176,10.313c2.822,3.234,6.78,4.889,10.759,4.889
			c3.33,0,6.674-1.159,9.379-3.52c5.939-5.183,6.553-14.199,1.369-20.138c-4.048-4.637-5.501-6.729-5.848-7.254
			c-7.541-11.446-8.778-18.146-8.369-25.846c0.55-10.245,6.664-19.693,15.584-24.069c3.263-1.603,6.686-2.415,10.171-2.415
			c7.882,0,14.273-6.392,14.273-14.273S187.353,47.49,179.471,47.49z"/>
	</g>
</g>
<g>
	<g>
		<path d="M186.653,160.293h-0.014c-7.882,0-14.266,6.392-14.266,14.273s6.397,14.273,14.281,14.273s14.273-6.392,14.273-14.273
			S194.537,160.293,186.653,160.293z"/>
	</g>
</g>
<g>
</g>
<g>
</g>
<g>
</g>
<g>
</g>
<g>
</g>
<g>
</g>
<g>
</g>
<g>
</g>
<g>
</g>
<g>
</g>
<g>
</g>
<g>
</g>
<g>
</g>
<g>
</g>
<g>
</g>
</svg>
