<?xml version="1.0" encoding="iso-8859-1"?>
<!-- Generator: Adobe Illustrator 19.0.0, SVG Export Plug-In . SVG Version: 6.00 Build 0)  -->
<svg version="1.1" id="Layer_1" xmlns="http://www.w3.org/2000/svg" xmlns:xlink="http://www.w3.org/1999/xlink" x="0px" y="0px"
	 viewBox="0 0 512 512" style="enable-background:new 0 0 512 512;" xml:space="preserve">
<g>
	<g>
		<path d="M461.913,100.174h-83.478V50.087C378.435,22.469,355.966,0,328.348,0H183.652c-27.618,0-50.087,22.469-50.087,50.087
			v50.087H50.087C22.469,100.174,0,122.643,0,150.261v66.783c0,9.22,7.475,16.696,16.696,16.696h16.696v228.174
			C33.391,489.531,55.86,512,83.478,512h345.043c27.618,0,50.087-22.469,50.087-50.087V233.739h16.696
			c9.22,0,16.696-7.475,16.696-16.696v-66.783C512,122.643,489.531,100.174,461.913,100.174z M166.957,50.087
			c0-9.206,7.49-16.696,16.696-16.696h144.696c9.206,0,16.696,7.49,16.696,16.696v50.087H166.957V50.087z M445.217,461.913
			c0,9.206-7.49,16.696-16.696,16.696H83.478c-9.206,0-16.696-7.49-16.696-16.696V233.739h139.13v16.696
			c0,27.618,22.469,50.087,50.087,50.087c27.618,0,50.087-22.469,50.087-50.087v-16.696h139.13V461.913z M239.304,250.435v-50.087
			h33.391v50.087c0,9.206-7.49,16.696-16.696,16.696C246.794,267.13,239.304,259.641,239.304,250.435z M478.609,200.348h-16.696
			H306.087v-16.696c0-9.22-7.475-16.696-16.696-16.696h-66.783c-9.22,0-16.696,7.475-16.696,16.696v16.696H50.087H33.391v-50.087
			c0-9.206,7.49-16.696,16.696-16.696h100.174h211.478h100.174c9.206,0,16.696,7.49,16.696,16.696V200.348z"/>
	</g>
</g>
<g>
	<g>
		<path d="M116.87,267.13c-9.22,0-16.696,7.475-16.696,16.696v144.696c0,9.22,7.475,16.696,16.696,16.696
			s16.696-7.475,16.696-16.696V283.826C133.565,274.606,126.09,267.13,116.87,267.13z"/>
	</g>
</g>
<g>
	<g>
		<path d="M395.13,267.13c-9.22,0-16.696,7.475-16.696,16.696v144.696c0,9.22,7.475,16.696,16.696,16.696
			s16.696-7.475,16.696-16.696V283.826C411.826,274.606,404.351,267.13,395.13,267.13z"/>
	</g>
</g>
<g>
</g>
<g>
</g>
<g>
</g>
<g>
</g>
<g>
</g>
<g>
</g>
<g>
</g>
<g>
</g>
<g>
</g>
<g>
</g>
<g>
</g>
<g>
</g>
<g>
</g>
<g>
</g>
<g>
</g>
</svg>
