<?xml version="1.0" encoding="UTF-8"?> <!-- Generator: Adobe Illustrator 21.0.0, SVG Export Plug-In . SVG Version: 6.00 Build 0) --> <svg xmlns="http://www.w3.org/2000/svg" xmlns:xlink="http://www.w3.org/1999/xlink" id="Layer_1" x="0px" y="0px" viewBox="0 0 24 24" xml:space="preserve"> <g> <path fill="none" stroke="#303C42" stroke-linecap="round" stroke-linejoin="round" stroke-miterlimit="10" d=" M9.5418701,21.4154053C9.7406006,22.59729,10.7615356,23.5,12,23.5s2.2593994-0.90271,2.4581299-2.0845947"></path> <path fill="none" stroke="#303C42" stroke-linecap="round" stroke-linejoin="round" stroke-miterlimit="10" d="M7.5,12.5 c0,3.6518555-0.8886719,5.3676758-1.5517578,6.4003906"></path> <g> <g> <path fill="none" stroke="#303C42" stroke-linecap="round" stroke-linejoin="round" stroke-miterlimit="10" d=" M8.581543,5.9417114L8.5,6c0,0-3,1.15625-3,6.5s-2,5.46875-2,7s5.34375,2,8.5,2s8.5-0.46875,8.5-2s-2-1.65625-2-7s-3-6.5-3-6.5 l-0.1842041-0.1315918"></path> </g> </g> <circle fill="none" stroke="#303C42" stroke-linecap="round" stroke-linejoin="round" stroke-miterlimit="10" cx="12" cy="4" r="1.5"></circle> <path fill="none" stroke="#303C42" stroke-linecap="round" stroke-linejoin="round" stroke-miterlimit="10" d=" M10.8124104,3.077652C9.3436604,1.608902,7.21875,0.5,6,0.5s-0.5,2.15625-0.5,3s-0.1875024,3,1,3 c1.1874976,0,4.359375-1.546875,4.359375-1.546875"></path> <path fill="none" stroke="#303C42" stroke-linecap="round" stroke-linejoin="round" stroke-miterlimit="10" d="M13.21875,3.15625 C14.6875,1.6875,16.78125,0.5,18,0.5s0.5,2.15625,0.5,3s0.1875,3-1,3s-4.265625-1.59375-4.265625-1.59375"></path> <polyline fill="none" stroke="#303C42" stroke-linecap="round" stroke-linejoin="round" stroke-miterlimit="10" points=" 9.671875,5.5 8.5,8.5 10,8 10.5,9.5 12,5.5 "></polyline> <polyline fill="none" stroke="#303C42" stroke-linecap="round" stroke-linejoin="round" stroke-miterlimit="10" points=" 14.375,5.453125 15.5,8.5 14,8 13.5,9.5 12,5.5 "></polyline> </g> </svg> 